<?xml version="1.0" encoding="UTF-8" standalone="no"?>
<svg
   xmlns:dc="http://purl.org/dc/elements/1.1/"
   xmlns:cc="http://creativecommons.org/ns#"
   xmlns:rdf="http://www.w3.org/1999/02/22-rdf-syntax-ns#"
   xmlns:svg="http://www.w3.org/2000/svg"
   xmlns="http://www.w3.org/2000/svg"
   xmlns:sodipodi="http://sodipodi.sourceforge.net/DTD/sodipodi-0.dtd"
   xmlns:inkscape="http://www.inkscape.org/namespaces/inkscape"
   version="1.1"
   id="svg10"
   width="1000"
   height="273.66495"
   viewBox="0 0 999.99998 273.66494"
   sodipodi:docname="Surya_Citra_Media.svg"
   inkscape:version="1.0.2 (e86c870879, 2021-01-15)">
  <metadata
     id="metadata16">
    <rdf:RDF>
      <cc:Work
         rdf:about="">
        <dc:format>image/svg+xml</dc:format>
        <dc:type
           rdf:resource="http://purl.org/dc/dcmitype/StillImage" />
        <dc:title />
      </cc:Work>
    </rdf:RDF>
  </metadata>
  <defs
     id="defs14" />
  <sodipodi:namedview
     pagecolor="#ffffff"
     bordercolor="#666666"
     borderopacity="1"
     objecttolerance="10"
     gridtolerance="10"
     guidetolerance="10"
     inkscape:pageopacity="0"
     inkscape:pageshadow="2"
     inkscape:window-width="1366"
     inkscape:window-height="705"
     id="namedview12"
     showgrid="false"
     inkscape:zoom="0.5"
     inkscape:cx="682.74246"
     inkscape:cy="152.77308"
     inkscape:window-x="-8"
     inkscape:window-y="-8"
     inkscape:window-maximized="1"
     inkscape:current-layer="svg10"
     inkscape:document-rotation="0">
    <inkscape:grid
       type="xygrid"
       id="grid922"
       originx="2.5253284e-09"
       originy="0" />
  </sodipodi:namedview>
  <g
     id="g339">
    <path
       id="path838-3"
       style="font-weight:bold;font-size:378.28px;font-family:'Gotham Ultra';-inkscape-font-specification:'Gotham Ultra Bold';letter-spacing:-17.9946px;display:inline;opacity:1;fill:#3963af;fill-opacity:1;stroke-width:9.72122"
       d="m 393.42154,0 c -77.31936,0 -137.61985,61.417226 -137.61985,136.83247 0,81.3498 67.16839,136.83248 134.29068,136.83248 53.40384,0 87.84674,-24.37393 109.21295,-50.91228 5.00739,-6.21952 7.7013,-9.46644 7.43808,-14.32194 -0.26322,-4.85552 -4.28825,-7.04159 -8.85614,-9.72188 L 456.2745,174.29237 c -6.96918,-4.0893 -7.34471,-5.20286 -11.83557,-5.21928 -4.49086,-0.0164 -7.48861,3.54205 -12.16811,8.51978 -8.0663,8.58034 -22.68796,16.27129 -39.95772,16.27129 -28.48608,0 -56.19462,-23.60823 -56.19462,-56.41057 0,-32.80235 26.96863,-57.261024 56.19462,-57.261024 17.19761,0 30.64385,6.911659 39.59843,15.860396 5.49055,5.486948 7.98221,7.717458 12.11078,7.776358 4.12857,0.0589 5.93753,-1.2991 9.67027,-3.54895 l 45.87647,-27.650112 c 3.92332,-2.364733 6.10101,-4.064489 6.48634,-9.089293 0.38533,-5.024804 -5.87838,-12.078834 -9.46769,-16.236888 C 474.06403,21.211416 438.65042,0 393.42154,0 Z M 119.64576,2.8150818 C 48.207806,2.8150818 9.2789383,41.06751 9.7142302,90.497332 10.195753,145.1769 58.81751,161.70139 117.5053,173.69227 c 28.90712,5.90621 35.93482,9.66095 35.93482,17.53836 0,7.8774 -7.20864,11.29955 -21.54981,11.37308 -39.600924,0.20306 -69.184829,-16.19242 -77.486417,-21.56509 -4.308849,-2.78862 -7.765676,-4.76313 -11.462905,-4.75678 -3.329234,0.006 -6.083759,1.51216 -8.330579,4.21976 L 3.6081972,217.86211 C 1.0580654,220.93522 -3.4210454e-5,222.89291 0,226.38189 c 3.4215397e-5,3.48897 2.4425453,7.22396 6.8093256,10.28948 33.1360324,23.26177 75.4365034,34.38107 121.7212344,34.38107 69.58722,0 114.37488,-33.13497 114.37488,-88.30337 0,-52.09538 -44.41713,-71.30817 -110.67304,-83.50071 -27.39071,-5.172611 -34.524406,-9.765952 -34.524406,-16.724226 0,-6.958273 6.022366,-11.160949 18.977436,-11.160949 17.45604,0 37.77015,4.589966 53.39291,11.833664 13.95345,6.469693 16.08121,9.296851 20.72038,9.335828 4.63917,0.03897 7.2798,-1.883211 10.34872,-6.132789 l 26.88184,-37.224823 c 2.91366,-4.034596 4.39307,-7.156242 3.14379,-11.619618 C 229.92379,33.09207 223.6664,29.477728 216.50904,25.398803 190.47752,10.563638 159.15725,2.8150818 119.64576,2.8150818 Z m 421.36787,5.2039837 c -7.75456,0 -12.32864,5.4551055 -12.32864,12.2311765 V 251.66029 c 0,8.12151 3.35096,14.18817 12.32864,14.18817 h 59.5276 c 8.48844,0 13.30714,-5.16079 13.30714,-11.93687 V 141.0828 L 575.01248,76.624502 V 223.15783 c 0,2.67655 -2.15476,4.83131 -4.83132,4.83131 -2.67654,0 -4.83131,-2.15476 -4.83131,-4.83131 V 60.186947 c 0,-2.676548 2.15477,-4.831315 4.83131,-4.831315 2.27579,0 3.55685,1.81431 4.67843,3.676997 l 91.35542,151.720111 c 3.4019,5.64976 4.50744,7.40199 7.52218,7.43235 3.01474,0.0303 4.12992,-1.86059 7.48395,-7.43235 L 772.6339,58.89694 c 1.57876,-2.62266 2.84621,-3.522927 5.16193,-3.541308 2.31578,-0.01839 4.82941,2.154767 4.82941,4.831315 V 223.25529 c 0,2.67656 -1.95792,4.73385 -4.63447,4.73385 -2.67654,0 -4.83132,-2.05729 -4.83132,-4.73385 V 76.593924 l -38.91806,64.593996 v 112.91861 c 0,9.22231 6.75085,11.74193 13.40459,11.74193 h 59.13393 c 8.73306,0 11.15521,-6.40876 11.15521,-13.30714 V 20.250242 c 0,-6.531449 -3.49811,-12.2311765 -12.23117,-12.2311765 h -59.91557 c -12.22783,0 -19.71265,4.0629545 -27.35006,16.5522225 l -37.98927,62.122913 c -3.10432,5.076416 -3.67426,6.878443 -6.79786,6.868571 -3.12359,-0.0099 -3.56126,-1.628422 -6.7692,-6.868571 L 635.55871,35.527747 C 627.36836,22.14885 621.92933,8.0190655 602.59569,8.0190655 Z M 118.18375,33.459913 c 27.60796,-0.141687 47.8184,6.977976 57.16546,9.907254 3.22624,1.011074 3.85619,2.114235 4.09172,4.900116 0.24599,2.909744 -2.71792,5.26418 -5.31484,4.628736 C 168.47472,51.51318 147.0713,42.873058 118.91762,42.96392 103.50056,43.01368 86.543442,46.915074 74.791737,55.435899 63.040031,63.956723 58.513384,75.823166 58.627472,84.639745 c 0.140706,10.873475 5.053252,20.808035 16.636312,28.907625 8.013936,5.60384 21.896481,8.67906 47.757016,16.52164 22.06339,6.69104 53.58322,15.26382 69.88971,27.39402 15.93635,11.85486 17.95203,23.81163 17.30329,37.19233 -0.64877,13.38069 -8.10106,26.0806 -21.8078,34.23392 -12.80546,7.61718 -28.94265,12.97646 -63.41293,12.75483 -34.470269,-0.22164 -65.833665,-13.84485 -68.614988,-14.60098 -2.579868,-0.70136 -4.999492,-2.67189 -4.999494,-5.3454 0,-2.6735 2.911138,-5.4539 5.509763,-4.82558 3.127275,0.75613 32.512119,14.10181 66.556709,15.06919 23.98202,0.68145 45.08924,-2.13193 58.56059,-10.45383 8.29128,-5.12192 18.05648,-11.92933 18.75765,-28.61905 0.67579,-16.08548 -6.04945,-22.92125 -19.81832,-31.58128 -15.07282,-9.48012 -48.83272,-18.23434 -73.51129,-25.73325 C 82.755123,128.05501 75.298022,126.6331 64.540481,117.3161 54.696682,108.79048 48.83618,97.795635 48.976308,84.028187 49.11133,70.762492 56.102769,57.576052 68.458281,48.343727 80.813793,39.111402 99.527847,33.555658 118.18375,33.459913 Z m 274.20579,1.809833 c 18.33688,2.05e-4 34.52516,4.202039 52.85588,14.729012 3.92363,2.253257 4.5796,4.456606 3.34256,7.023372 -1.23704,2.566766 -4.49765,3.331335 -7.04822,1.775432 -15.65829,-9.551933 -32.55213,-13.973905 -49.15213,-13.97412 -51.17466,5.28e-4 -92.66264,41.484624 -92.66264,92.658818 0,51.17417 41.48798,92.65828 92.66264,92.6588 16.6,-2.1e-4 33.49384,-4.42218 49.15213,-13.97412 2.55057,-1.5559 5.81118,-0.79133 7.04822,1.77543 1.23704,2.56677 0.58107,4.77012 -3.34256,7.02338 -18.33072,10.52697 -34.519,14.7288 -52.85588,14.72901 -56.45113,-2.7e-4 -102.21633,-45.76185 -102.21633,-102.2125 0,-56.450665 45.7652,-102.21225 102.21633,-102.212514 z" />
    <g
       id="g320"
       style="display:inline;fill:#b6b6b7;fill-opacity:0.964706"
       transform="scale(0.97849417)">
      <path
         d="m 905.68339,119.60209 c 6.11594,0 10.40924,-3.15923 10.40924,-8.78913 v -0.081 c 0,-4.94135 -3.24023,-7.007 -8.99164,-8.50561 -4.90085,-1.25559 -6.11594,-1.86313 -6.11594,-3.726263 v -0.08101 c 0,-1.377099 1.25559,-2.470677 3.64526,-2.470677 2.38967,0 4.86035,1.053075 7.37153,2.7947 l 3.24023,-4.698336 C 912.36637,91.736092 908.84261,90.44 904.71132,90.44 c -5.79192,0 -9.92321,3.402243 -9.92321,8.546111 v 0.08101 c 0,5.629899 3.68576,7.209509 9.39667,8.667619 4.73884,1.21508 5.71091,2.02514 5.71091,3.60476 v 0.081 c 0,1.66062 -1.53911,2.67319 -4.09079,2.67319 -3.24023,0 -5.91343,-1.33659 -8.46511,-3.44274 l -3.68576,4.41481 c 3.40224,3.03772 7.73605,4.53633 12.02936,4.53633 z"
         style="font-weight:bold;font-size:40.5029px;font-family:Gotham;-inkscape-font-specification:'Gotham Bold';letter-spacing:0px;fill:#b6b6b7;fill-opacity:0.964706;stroke-width:4.29593"
         id="path194" />
      <path
         d="m 931.44637,119.64259 c 7.61455,0 12.43439,-4.2123 12.43439,-12.79892 V 90.845029 h -6.23744 v 16.241661 c 0,4.49582 -2.30867,6.80449 -6.11594,6.80449 -3.80727,0 -6.11594,-2.38967 -6.11594,-7.007 V 90.845029 H 919.174 v 16.201161 c 0,8.3436 4.65783,12.5964 12.27237,12.5964 z"
         style="font-weight:bold;font-size:40.5029px;font-family:Gotham;-inkscape-font-specification:'Gotham Bold';letter-spacing:0px;fill:#b6b6b7;fill-opacity:0.964706;stroke-width:4.29593"
         id="path196" />
      <path
         d="m 947.34,119.19706 h 6.23744 v -9.07265 h 4.90085 l 6.07544,9.07265 h 7.29052 l -6.926,-10.12573 c 3.60476,-1.33659 6.07544,-4.2123 6.07544,-8.78913 v -0.081 c 0,-2.673193 -0.85056,-4.900852 -2.43018,-6.480465 -1.86313,-1.863134 -4.65783,-2.875706 -8.26259,-2.875706 H 947.34 Z m 6.23744,-14.58105 v -8.141078 h 6.19695 c 3.03771,0 4.90085,1.377098 4.90085,4.050288 v 0.081 c 0,2.38967 -1.74163,4.00978 -4.77935,4.00978 z"
         style="font-weight:bold;font-size:40.5029px;font-family:Gotham;-inkscape-font-specification:'Gotham Bold';letter-spacing:0px;fill:#b6b6b7;fill-opacity:0.964706;stroke-width:4.29593"
         id="path198" />
      <path
         d="m 981.39028,119.19706 h 6.23745 v -11.30031 l 10.8953,-17.051721 H 991.435 l -6.88549,11.381311 -6.76399,-11.381311 H 970.495 l 10.89528,17.173231 z"
         style="font-weight:bold;font-size:40.5029px;font-family:Gotham;-inkscape-font-specification:'Gotham Bold';letter-spacing:0px;fill:#b6b6b7;fill-opacity:0.964706;stroke-width:4.29593"
         id="path200" />
      <path
         id="path202"
         style="font-weight:bold;font-size:40.5029px;font-family:Gotham;-inkscape-font-specification:'Gotham Bold';letter-spacing:0px;fill:#b6b6b7;fill-opacity:0.964706;stroke-width:4.29593"
         d="m 1004.0762,90.642188 -12.15042,28.554692 h 6.35938 l 8.58594,-21.060552 8.5879,21.060552 h 6.5195 l -12.1504,-28.554692 z"
         sodipodi:nodetypes="cccccccc" />
      <path
         d="m 908.19454,154.68274 c 5.46789,0 8.70812,-1.94414 11.62433,-5.06287 l -3.96928,-4.00978 c -2.22766,2.02514 -4.21231,3.32124 -7.45254,3.32124 -4.86035,0 -8.22209,-4.05029 -8.22209,-8.91064 v -0.081 c 0,-4.86035 3.44275,-8.82963 8.22209,-8.82963 2.8352,0 5.06286,1.21509 7.25002,3.19973 l 3.96928,-4.57683 c -2.63268,-2.59218 -5.83241,-4.37431 -11.1788,-4.37431 -8.70812,0 -14.78355,6.60197 -14.78355,14.66205 v 0.081 c 0,8.14109 6.19694,14.58105 14.54054,14.58105 z"
         style="font-weight:bold;font-size:40.5029px;font-family:Gotham;-inkscape-font-specification:'Gotham Bold';letter-spacing:0px;fill:#b6b6b7;fill-opacity:0.964706;stroke-width:4.29593"
         id="path204" />
      <path
         d="m 924.984,154.1967 h 6.23745 V 125.84467 H 924.984 Z"
         style="font-weight:bold;font-size:40.5029px;font-family:Gotham;-inkscape-font-specification:'Gotham Bold';letter-spacing:0px;fill:#b6b6b7;fill-opacity:0.964706;stroke-width:4.29593"
         id="path206" />
      <path
         d="m 944.81112,154.1967 h 6.23745 v -22.60062 h 8.62711 v -5.75141 H 936.184 v 5.75141 h 8.62712 z"
         style="font-weight:bold;font-size:40.5029px;font-family:Gotham;-inkscape-font-specification:'Gotham Bold';letter-spacing:0px;fill:#b6b6b7;fill-opacity:0.964706;stroke-width:4.29593"
         id="path208" />
      <path
         d="m 964.455,154.1967 h 6.23744 v -9.07265 h 4.90086 l 6.07543,9.07265 h 7.29052 l -6.92599,-10.12572 c 3.60475,-1.3366 6.07543,-4.2123 6.07543,-8.78913 v -0.081 c 0,-2.67319 -0.85056,-4.90085 -2.43017,-6.48046 -1.86314,-1.86313 -4.65784,-2.87571 -8.26259,-2.87571 H 964.455 Z m 6.23744,-14.58104 v -8.14108 h 6.19695 c 3.03772,0 4.90085,1.37709 4.90085,4.05029 v 0.081 c 0,2.38967 -1.74163,4.00979 -4.77934,4.00979 z"
         style="font-weight:bold;font-size:40.5029px;font-family:Gotham;-inkscape-font-specification:'Gotham Bold';letter-spacing:0px;fill:#b6b6b7;fill-opacity:0.964706;stroke-width:4.29593"
         id="path210" />
      <path
         d="m 894.254,189.19652 h 6.11593 V 170.8082 l 7.89807,11.98886 h 0.16201 l 7.97907,-12.11037 v 18.50983 h 6.19695 v -28.35203 h -6.72349 l -7.45253,11.98885 -7.45253,-11.98885 H 894.254 Z"
         style="font-weight:bold;font-size:40.5029px;font-family:Gotham;-inkscape-font-specification:'Gotham Bold';letter-spacing:0px;fill:#b6b6b7;fill-opacity:0.964706;stroke-width:4.29593"
         id="path212" />
      <path
         d="m 927.21,189.19652 h 21.58804 v -5.5489 h -15.3911 v -5.95393 h 13.36596 v -5.54889 h -13.36596 v -5.75142 h 15.18859 v -5.54889 H 927.21 Z"
         style="font-weight:bold;font-size:40.5029px;font-family:Gotham;-inkscape-font-specification:'Gotham Bold';letter-spacing:0px;fill:#b6b6b7;fill-opacity:0.964706;stroke-width:4.29593"
         id="path214" />
      <path
         d="m 953.447,189.19652 h 11.0573 c 8.91063,0 15.06707,-6.19695 15.06707,-14.17602 v -0.081 c 0,-7.97908 -6.15644,-14.09501 -15.06707,-14.09501 H 953.447 Z m 6.23745,-5.62991 v -17.09222 h 4.81985 c 5.10336,0 8.54611,3.52375 8.54611,8.54611 v 0.081 c 0,5.02236 -3.44275,8.4651 -8.54611,8.4651 z"
         style="font-weight:bold;font-size:40.5029px;font-family:Gotham;-inkscape-font-specification:'Gotham Bold';letter-spacing:0px;fill:#b6b6b7;fill-opacity:0.964706;stroke-width:4.29593"
         id="path216" />
      <path
         d="m 983.204,189.19652 h 6.23744 V 160.84449 H 983.204 Z"
         style="font-weight:bold;font-size:40.5029px;font-family:Gotham;-inkscape-font-specification:'Gotham Bold';letter-spacing:0px;fill:#b6b6b7;fill-opacity:0.964706;stroke-width:4.29593"
         id="path218" />
      <path
         id="path202-7"
         style="font-weight:bold;font-size:40.5029px;font-family:Gotham;-inkscape-font-specification:'Gotham Bold';letter-spacing:0px;fill:#b6b6b7;fill-opacity:0.964706;stroke-width:4.29593"
         d="m 1004.0762,125.642 -12.1505,28.5547 h 6.3594 l 8.586,-21.06056 8.5879,21.06056 h 6.5195 l -12.1504,-28.5547 z"
         sodipodi:nodetypes="cccccccc" />
      <path
         id="path202-7-9"
         style="font-weight:bold;font-size:40.5029px;font-family:Gotham;-inkscape-font-specification:'Gotham Bold';letter-spacing:0px;fill:#b6b6b7;fill-opacity:0.964706;stroke-width:4.29593"
         d="m 1004.0762,160.64182 -12.15054,28.5547 h 6.3594 l 8.58604,-21.06056 8.5879,21.06056 h 6.5195 l -12.1504,-28.5547 z"
         sodipodi:nodetypes="cccccccc" />
    </g>
  </g>
</svg>
